<svg width="197" height="152" viewBox="0 0 197 152" fill="none" xmlns="http://www.w3.org/2000/svg">
<g clip-path="url(#clip0_392_3559)">
<g filter="url(#filter0_d_392_3559)">
<path d="M78.1074 116.036C78.1074 129.115 73.9731 139.717 68.873 139.717C63.773 139.717 61.7494 137.514 59.6387 116.036C59.6387 102.957 63.773 101.717 68.873 101.717C73.9731 101.717 78.1074 102.957 78.1074 116.036Z" fill="#D3D3D3"/>
<path d="M75.1074 116.036C75.1074 122.299 74.1121 127.833 72.6077 131.691C71.8518 133.63 71.0258 134.994 70.2618 135.823C69.5005 136.649 69.0281 136.717 68.873 136.717C67.7594 136.717 67.322 136.582 67.0743 136.439C66.8749 136.324 66.4331 135.992 65.8859 134.735C64.7055 132.02 63.6982 126.626 62.6389 115.891C62.6547 109.579 63.7017 106.995 64.6188 105.927C65.3652 105.059 66.4435 104.717 68.873 104.717C71.3026 104.717 72.3809 105.059 73.1273 105.927C74.0514 107.003 75.1074 109.619 75.1074 116.036Z" stroke="black" stroke-width="6"/>
</g>
<g filter="url(#filter1_d_392_3559)">
<path d="M130.051 117.187C130.051 130.266 125.916 140.869 120.816 140.869C115.716 140.869 113.693 138.666 111.582 117.187C111.582 104.109 115.716 102.869 120.816 102.869C125.916 102.869 130.051 104.109 130.051 117.187Z" fill="#D3D3D3"/>
<path d="M127.051 117.187C127.051 123.451 126.056 128.985 124.551 132.843C123.795 134.781 122.969 136.145 122.205 136.974C121.444 137.8 120.971 137.869 120.816 137.869C119.703 137.869 119.265 137.733 119.018 137.59C118.818 137.475 118.376 137.144 117.829 135.886C116.649 133.172 115.642 127.778 114.582 117.042C114.598 110.73 115.645 108.146 116.562 107.079C117.309 106.21 118.387 105.869 120.816 105.869C123.246 105.869 124.324 106.21 125.071 107.079C125.995 108.154 127.051 110.77 127.051 117.187Z" stroke="black" stroke-width="6"/>
</g>
<path d="M192.773 63.2613C193.021 60.1017 192.698 56.8157 191.606 53.833C190.538 50.8503 188.676 48.2973 186.566 46.4774C184.753 44.9355 182.842 43.8233 180.979 43.0903C181.7 41.5231 182.146 39.5768 181.997 37.4283C181.848 33.662 180.036 29.4407 176.808 26.5845C175.244 25.1689 173.332 23.9556 171.222 23.5007C169.136 22.9951 167.001 23.1973 165.238 23.7787C164.146 24.1579 163.153 24.6381 162.284 25.1942C162.135 24.3601 161.936 23.5007 161.663 22.6412C159.95 16.9792 154.91 11.9238 149.05 9.37085C146.146 8.05645 142.968 7.14648 139.765 7.09593C136.562 7.04537 133.434 7.95534 130.951 9.47196C129.436 10.4072 128.145 11.4688 127.078 12.6063C126.233 11.0644 124.967 9.49724 123.304 8.18284C120.15 5.62987 115.483 4.18908 110.939 4.64406C107.215 4.94739 103.342 6.33762 100.685 8.84004C100.412 8.30922 100.064 7.75313 99.5927 7.27287C97.9044 5.40237 95.074 4.56823 92.5415 4.61879C90.0835 4.59351 87.0297 5.4782 85.5648 7.72785C85.3165 8.10701 85.1179 8.48616 84.9441 8.86531C83.9758 7.60147 82.6351 6.38817 80.9219 5.55404C77.6446 3.80993 73.1507 3.30439 69.1037 4.69462C67.1175 5.3771 65.1312 6.43873 63.6912 8.08173C62.4249 9.44668 61.6056 11.0897 61.1339 12.7074C55.4979 9.19392 45.368 8.68838 37.5223 13.3141C34.8657 14.7548 32.3828 16.7264 30.5704 19.2036C28.7579 21.6554 27.6655 24.5623 27.3676 27.3175C27.1441 29.4155 27.3179 31.3871 27.7151 33.1565C26.4986 33.1312 25.1578 33.2828 23.7675 33.6873C20.4405 34.6983 17.1632 37.0491 15.2017 40.7395C13.5631 43.9497 13.8114 47.6654 14.879 50.5217C13.3645 51.1536 11.8499 52.0636 10.4596 53.4033C6.28843 57.3465 4.37666 63.7416 4.22769 69.9091C4.17803 73.0435 4.72425 76.3042 6.18912 79.0847C7.60432 81.8904 9.93817 84.1148 12.4458 85.3786C13.6127 85.96 14.7797 86.3644 15.9218 86.5919C15.8224 86.8447 15.7231 87.0975 15.6487 87.3755C14.6555 90.3329 14.9535 94.2761 16.7411 97.3599C18.3301 100.621 22.0047 102.896 25.1578 102.87C25.8282 102.896 26.4489 102.845 27.0448 102.769C27.2186 104.109 27.591 105.524 28.1869 106.965C29.8752 111.06 33.7484 114.624 38.0685 116.596C42.2893 118.694 47.4039 119.654 51.6495 118.416C53.9089 117.758 55.771 116.621 57.1365 115.357C57.509 118.011 59.8428 120.665 62.4498 121.6C65.0319 122.814 68.6568 122.864 70.8913 121.044C71.3382 120.691 71.7355 120.311 72.0831 119.932C72.679 120.842 73.4486 121.676 74.2928 122.409C78.0915 125.67 83.6034 127.111 88.8918 127.263C94.1305 127.465 99.8658 126.378 103.665 122.991C103.962 122.738 104.26 122.46 104.534 122.157C106.669 124.988 110.343 127.263 114.365 127.718C116.352 127.945 118.487 127.819 120.374 127.01C122.261 126.226 123.825 124.886 124.893 123.446C125.613 122.435 126.159 121.398 126.556 120.387C127.152 120.867 127.798 121.297 128.493 121.702C131.969 123.749 136.835 124.457 141.254 123.319C145.575 122.283 149.895 119.73 151.881 115.888C152.005 115.66 152.104 115.433 152.204 115.205C153.718 115.863 155.555 116.292 157.542 116.318C161.564 116.444 166.182 114.75 169.534 111.641C172.861 108.659 175.492 104.336 175.492 99.9887C175.492 99.837 175.492 99.7107 175.492 99.559C176.808 99.7612 178.373 99.6095 180.011 99.0535C182.519 98.2193 185.101 96.1213 186.442 93.3156C188.006 90.6362 187.907 86.693 186.144 84.4181C185.151 83.0279 183.909 82.0926 182.717 81.5871C183.611 81.031 184.505 80.3991 185.324 79.666C189.545 75.8492 192.4 69.5805 192.773 63.2613Z" fill="#070102"/>
<path d="M184.032 77.5175C180.581 81.031 176.186 82.6993 173.306 82.2443C173.157 82.1938 172.984 82.3454 172.909 82.5729C172.835 82.8004 172.909 83.0279 173.083 83.0785C175.293 83.9632 178.421 83.6346 181.549 82.1432C182.567 82.8004 183.709 83.9632 184.429 85.4292C185.348 87.2492 185.298 89.4988 184.156 91.6221C182.443 95.3631 178.495 97.2841 175.739 97.7391C175.218 94.4278 173.43 92.0265 171.966 90.7627C171.891 90.6616 171.668 90.7121 171.519 90.8891C171.345 91.066 171.27 91.2429 171.345 91.344C172.462 93.1893 173.803 96.1972 173.43 99.5843C173.132 102.946 170.898 106.409 167.943 109.063C165.038 111.743 161.314 113.284 157.888 113.537C154.437 113.815 151.408 112.931 149.67 111.717C149.595 111.641 149.397 111.717 149.223 111.894C149.049 112.071 148.999 112.273 149.074 112.349C149.446 112.829 149.918 113.31 150.514 113.739C150.39 113.942 150.291 114.144 150.142 114.321C148.329 117.152 144.754 119.123 140.93 120.059C137.132 121.019 133.134 120.615 129.981 119.174C126.828 117.758 124.544 115.509 123.575 113.638C123.551 113.537 123.327 113.512 123.104 113.562C122.88 113.638 122.731 113.79 122.781 113.891C123.004 115.382 123.923 117.101 125.413 118.694C124.891 119.68 124.246 120.665 123.402 121.575C121.44 123.774 118.411 124.937 115.109 124.432C111.881 124.078 108.828 122.409 106.792 120.261C106.692 120.16 106.568 120.033 106.469 119.907C108.256 117 108.505 113.739 107.834 111.717C107.81 111.566 107.611 111.49 107.387 111.54C107.164 111.591 106.99 111.743 107.015 111.869C107.114 114.472 105.898 118.34 102.521 120.792C99.219 123.294 94.2534 124.154 89.387 123.977C84.4959 123.85 79.6047 122.687 76.2281 120.236C74.5646 119.022 73.3232 117.48 72.8018 115.888C72.2556 114.296 72.4294 112.728 72.9011 111.49C72.9508 111.363 72.8515 111.186 72.6528 111.06C72.4542 110.934 72.2308 110.959 72.1563 111.085C71.3121 112.248 70.6666 114.169 71.0638 116.318C71.1383 116.773 71.2625 117.228 71.4363 117.683C70.9894 118.062 70.5176 118.441 69.9714 118.719C68.3079 119.629 66.1479 119.503 63.9878 118.567C61.8278 117.708 60.3877 116.191 59.8912 114.245C59.7422 113.689 59.6429 113.107 59.6181 112.551C59.7919 112.248 59.9408 111.97 60.065 111.692C60.1394 111.566 60.0153 111.363 59.7919 111.288C59.5684 111.186 59.3698 111.186 59.3201 111.288C57.8553 113.006 55.0497 115.13 51.4496 115.787C47.8495 116.495 43.6039 115.585 39.7307 113.664C35.8078 111.869 32.5305 109.013 30.7677 105.701C29.0049 102.441 28.5828 98.826 28.9056 96.728C28.9553 96.6522 28.7566 96.5764 28.6573 96.3489C28.558 96.1214 28.2104 96.1719 28.1608 96.3489C27.6394 97.3852 27.3414 98.6744 27.2669 100.115C26.7704 100.09 26.2986 100.039 25.8021 99.9382C23.4434 99.5085 21.2834 97.9919 20.0171 95.54C17.0874 90.6616 19.024 84.4434 21.1592 82.2949C21.2089 82.2443 21.184 82.0421 21.0599 81.7894C20.9358 81.5619 20.762 81.4102 20.6875 81.4608C19.5206 81.8652 18.304 82.9268 17.3357 84.4182C16.2184 84.1148 15.0763 83.6598 13.9839 83.0026C9.83756 80.6772 7.35475 75.3437 7.62786 69.7828C7.77682 64.2219 9.341 58.484 12.5935 55.0211C15.8212 51.457 20.2902 50.4712 23.2199 50.3196C23.3689 50.3196 23.5179 50.1679 23.5427 49.9151C23.5675 49.6876 23.4682 49.4601 23.2944 49.4601C21.8544 49.1568 19.893 49.1063 17.8074 49.5613C17.1619 47.0841 17.1122 44.3542 18.304 41.9276C19.7192 39.2483 22.4254 36.9228 25.0076 35.8611C26.2738 35.3303 27.5401 35.0017 28.707 34.8248C29.4766 36.8469 30.5939 38.4647 31.8105 39.4757C31.9346 39.6021 32.1581 39.5516 32.3071 39.3746C32.456 39.1977 32.5057 38.9702 32.4064 38.8691C30.6684 36.5942 29.4022 32.196 30.2463 27.4945C30.9912 22.7424 34.5664 18.3189 39.3831 15.8418C44.1749 13.1877 49.662 12.0755 54.429 12.5811C59.0967 13.0361 63.4416 14.8813 64.6582 17.2573C64.683 17.3837 64.8816 17.4595 65.1299 17.4343C65.3534 17.409 65.5272 17.2573 65.4775 17.0551C65.1299 16.0187 64.5092 15.0582 63.6899 14.1988C63.7147 14.123 63.7395 14.0471 63.7644 13.9713C64.683 10.9634 67.1162 8.43566 70.5176 7.42458C73.7949 6.28712 77.4695 6.51461 80.3496 7.65208C83.3041 8.76426 85.2656 10.8117 86.2587 12.5305C86.3083 12.6316 86.507 12.6316 86.7304 12.5558C86.9539 12.48 87.1028 12.3283 87.0532 12.2272C86.9787 11.8228 86.8546 11.4183 86.6808 10.9634C86.9787 10.3062 87.376 9.67423 87.8973 9.14342C89.0146 7.98068 90.8767 7.55097 92.9871 7.52569C95.0479 7.50041 97.0093 7.9554 98.35 8.96648C98.8962 9.37091 99.3183 9.82589 99.6659 10.3314C97.2079 13.7438 97.1334 17.5354 97.6548 19.785C97.6548 19.9114 97.8783 19.9872 98.1017 19.9619C98.3252 19.9367 98.5238 19.8356 98.499 19.7092C98.6976 17.5606 99.3928 14.3252 101.652 11.8228C103.862 9.29508 107.685 7.90485 111.608 7.55097C115.506 7.17181 119.404 8.20817 122.309 10.1039C123.998 11.1908 125.363 12.5052 126.331 13.8197C124.569 16.0187 123.476 18.2937 122.831 20.0883C122.756 20.24 122.88 20.4675 123.079 20.5433C123.302 20.6444 123.526 20.5939 123.575 20.4422C125.239 17.7629 128.069 13.8702 132.563 11.5447C137.007 9.11814 142.991 9.47202 148.255 12.0503C153.568 14.401 157.962 18.5717 159.775 23.3743C161.687 28.1264 161.116 32.9543 159.651 35.6842C159.551 35.8106 159.651 36.0381 159.825 36.1897C160.023 36.3414 160.247 36.3161 160.346 36.1645C161.935 34.3193 163.077 31.0585 162.953 27.2923C163.946 26.7867 165.088 26.3317 166.305 26.079C169.309 25.3712 172.686 26.2559 175.243 28.733C177.85 31.0585 179.488 34.4204 179.96 37.5294C180.506 40.689 179.737 43.4442 178.768 45.1631C178.719 45.2389 178.818 45.4411 178.992 45.5928C179.166 45.7444 179.364 45.795 179.439 45.7192C179.786 45.4411 180.109 45.062 180.432 44.6322C182.095 45.4917 183.809 46.6544 185.348 48.1963C188.923 51.634 190.785 57.2202 190.239 62.9075C189.867 68.5948 187.558 74.0293 184.032 77.5175Z" fill="#1652F0"/>
<path d="M190.74 89.102C195 87.5219 197.245 83.7437 197.526 79.0108C197.994 71.146 193.636 64.1693 190.078 58.6751C188.404 56.0899 186.51 53.485 184.513 51.6598C182.659 49.9652 179.78 48.113 176.53 49.3185C174.119 50.2128 172.806 52.2748 172.142 54.3044C171.483 56.3194 171.315 58.6925 171.409 61.075C171.6 65.8722 172.897 71.5413 174.652 76.4544C176.388 81.3142 178.437 85.0765 181.052 87.3504C182.405 88.5269 183.946 89.3368 185.672 89.6407C187.395 89.9442 189.104 89.7085 190.74 89.102Z" fill="#D3D3D3" stroke="black" stroke-width="6"/>
<g filter="url(#filter2_d_392_3559)">
<path d="M59.2539 117.994C59.2539 129.356 55.1195 138.566 50.0195 138.566C44.9195 138.566 42.8959 136.652 40.7852 117.994C40.7852 106.633 44.9195 105.556 50.0195 105.556C55.1195 105.556 59.2539 106.633 59.2539 117.994Z" fill="#D3D3D3"/>
<path d="M56.2539 117.994C56.2539 123.352 55.273 128.058 53.8123 131.312C52.224 134.85 50.6497 135.566 50.0195 135.566C48.8729 135.566 48.3657 135.443 48.0658 135.293C47.8523 135.186 47.4612 134.927 46.9639 133.934C45.8425 131.694 44.8449 127.141 43.7855 117.827C43.8062 112.46 44.8294 110.426 45.6227 109.624C46.3597 108.879 47.5154 108.556 50.0195 108.556C52.5237 108.556 53.6793 108.879 54.4163 109.624C55.2178 110.434 56.2539 112.502 56.2539 117.994Z" stroke="black" stroke-width="6"/>
</g>
<g filter="url(#filter3_d_392_3559)">
<path d="M113.121 120.297C113.121 131.659 108.987 140.869 103.887 140.869C98.7867 140.869 96.7631 138.955 94.6523 120.297C94.6523 108.936 98.7867 107.859 103.887 107.859C108.987 107.859 113.121 108.936 113.121 120.297Z" fill="#D3D3D3"/>
<path d="M110.121 120.297C110.121 125.655 109.14 130.361 107.68 133.615C106.091 137.153 104.517 137.869 103.887 137.869C102.74 137.869 102.233 137.746 101.933 137.596C101.72 137.489 101.328 137.23 100.831 136.237C99.7097 133.997 98.712 129.444 97.6527 120.13C97.6734 114.763 98.6966 112.729 99.4899 111.927C100.227 111.182 101.383 110.859 103.887 110.859C106.391 110.859 107.547 111.182 108.284 111.927C109.085 112.737 110.121 114.805 110.121 120.297Z" stroke="black" stroke-width="6"/>
</g>
<path d="M158.955 111.626C168.288 111.626 175.465 110.643 180.283 107.273C185.435 103.67 187.193 97.9107 187.193 90.4679C187.193 83.0948 185.481 72.0424 181.3 62.7277C177.17 53.5258 170.097 44.9797 158.955 44.9797C147.853 44.9797 140.53 53.4737 136.152 62.6662C131.72 71.9709 129.744 83.0392 129.744 90.4679C129.744 98.0421 131.822 103.769 137.209 107.319C142.238 110.635 149.601 111.626 158.955 111.626Z" fill="#D3D3D3" stroke="black" stroke-width="6"/>
<path d="M166.866 71.4747C173.414 71.4747 178.659 66.0755 178.659 59.4949C178.659 52.9144 173.414 47.5151 166.866 47.5151C160.317 47.5151 155.072 52.9144 155.072 59.4949C155.072 66.0755 160.317 71.4747 166.866 71.4747Z" fill="white" stroke="black" stroke-width="4"/>
<path d="M147.657 74.1615C154.206 74.1615 159.45 68.7623 159.45 62.1817C159.45 55.6011 154.206 50.2019 147.657 50.2019C141.108 50.2019 135.863 55.6011 135.863 62.1817C135.863 68.7623 141.108 74.1615 147.657 74.1615Z" fill="white" stroke="black" stroke-width="4"/>
<path d="M112.708 85.9901C116.595 88.2772 120.847 87.6348 124.577 84.8505C130.866 80.1555 133.327 72.1787 135.176 65.8276C136.037 62.8703 136.77 59.7312 136.853 57.0092C136.93 54.4734 136.462 51.0618 133.488 49.3125C131.274 48.0099 128.885 48.3075 126.93 49.0951C124.991 49.8764 123.097 51.2713 121.366 52.8775C117.88 56.1115 114.451 60.7698 111.885 65.2992C109.346 69.7795 107.833 73.8014 107.805 77.3083C107.79 79.1227 108.173 80.8466 109.052 82.3874C109.931 83.9251 111.204 85.1053 112.708 85.9901Z" fill="#D3D3D3" stroke="black" stroke-width="6"/>
<path d="M151.799 87.707L152.058 90.5086C152.306 93.1813 154.002 95.5009 156.473 96.5464L157.553 97.0032C158.635 97.461 159.855 97.4717 160.946 97.0329V97.0329C164.231 95.7112 166.384 92.5249 166.384 88.9842L166.384 87.707" stroke="black" stroke-width="8" stroke-linecap="round"/>
<line y1="-4" x2="4.64722" y2="-4" transform="matrix(0.910742 0.412976 -0.414631 0.90999 130.051 73.3132)" stroke="black" stroke-width="8"/>
<path d="M144.672 64.1472C146.812 64.1472 149.381 63.8826 151.433 63.4513C152.453 63.237 153.395 62.9713 154.105 62.653C154.455 62.4957 154.804 62.3016 155.081 62.0551C155.348 61.8169 155.676 61.4119 155.676 60.8442C155.676 60.3143 155.385 59.904 155.159 59.6526C154.91 59.3774 154.587 59.1263 154.243 58.9008C153.547 58.4462 152.613 58.0003 151.583 57.609C149.629 56.8674 147.161 56.2606 145.006 56.2023C143.834 55.3667 142.753 54.953 141.759 55.0555C140.617 55.1731 139.902 55.9288 139.486 56.7032C139.079 57.462 138.884 58.3574 138.784 59.0905C138.683 59.8391 138.67 60.5035 138.67 60.8442C138.67 61.2731 138.742 61.7481 138.984 62.2069C139.23 62.6733 139.614 63.0523 140.122 63.3419C141.091 63.8928 142.562 64.1472 144.672 64.1472Z" stroke="black" stroke-width="2"/>
<mask id="mask0_392_3559" style="mask-type:alpha" maskUnits="userSpaceOnUse" x="139" y="56" width="16" height="8">
<path d="M154.676 60.8442C154.676 62.1162 148.816 63.1472 144.672 63.1472C140.528 63.1472 139.67 62.1162 139.67 60.8442C139.67 59.5722 139.862 53.5511 144.672 57.1977C148.816 57.1977 154.676 59.5722 154.676 60.8442Z" fill="#D9D9D9"/>
</mask>
<g mask="url(#mask0_392_3559)">
<ellipse cx="147.75" cy="60.8383" rx="3.84766" ry="4.79798" fill="black"/>
</g>
<path d="M167.565 52.7373L167.303 52.7373L167.075 52.8661C166.326 53.2877 165.514 53.592 164.671 53.8726C164.459 53.9429 164.242 54.0131 164.021 54.084C163.397 54.285 162.753 54.4925 162.182 54.7279C161.397 55.0519 160.602 55.4833 160.008 56.1717C159.389 56.8898 159.062 57.8004 159.062 58.9331C159.062 59.9794 159.297 60.9004 159.987 61.5151C160.657 62.1115 161.531 62.211 162.277 62.198C162.93 62.1867 163.683 62.0802 164.427 61.9749C164.546 61.9581 164.665 61.9413 164.782 61.925C165.563 61.8168 166.373 61.7166 167.21 61.6935C168.764 62.9138 170.79 63.4032 172.519 63.0892C173.452 62.9196 174.346 62.5056 175.012 61.7895C175.689 61.0611 176.068 60.0876 176.068 58.9331C176.068 56.7403 175.1 55.1207 173.474 54.1007C171.913 53.1219 169.821 52.7373 167.565 52.7373Z" fill="white" stroke="black" stroke-width="2"/>
<mask id="mask1_392_3559" style="mask-type:alpha" maskUnits="userSpaceOnUse" x="158" y="51" width="20" height="14">
<path d="M167.565 52.7373L167.303 52.7373L167.075 52.8661C166.326 53.2877 165.514 53.592 164.671 53.8726C164.459 53.9429 164.242 54.0131 164.021 54.084C163.397 54.285 162.753 54.4925 162.182 54.7279C161.397 55.0519 160.602 55.4833 160.008 56.1717C159.389 56.8898 159.062 57.8004 159.062 58.9331C159.062 59.9794 159.297 60.9004 159.987 61.5151C160.657 62.1115 161.531 62.211 162.277 62.198C162.93 62.1867 163.683 62.0802 164.427 61.9749C164.546 61.9581 164.665 61.9413 164.782 61.925C165.563 61.8168 166.373 61.7166 167.21 61.6935C168.764 62.9138 170.79 63.4032 172.519 63.0892C173.452 62.9196 174.346 62.5056 175.012 61.7895C175.689 61.0611 176.068 60.0876 176.068 58.9331C176.068 56.7403 175.1 55.1207 173.474 54.1007C171.913 53.1219 169.821 52.7373 167.565 52.7373Z" fill="white" stroke="black" stroke-width="2"/>
</mask>
<g mask="url(#mask1_392_3559)">
<ellipse cx="170.451" cy="57.5758" rx="4.61719" ry="4.60606" fill="black"/>
</g>
</g>
<defs>
<filter id="filter0_d_392_3559" x="55.6387" y="101.717" width="26.4688" height="46" filterUnits="userSpaceOnUse" color-interpolation-filters="sRGB">
<feFlood flood-opacity="0" result="BackgroundImageFix"/>
<feColorMatrix in="SourceAlpha" type="matrix" values="0 0 0 0 0 0 0 0 0 0 0 0 0 0 0 0 0 0 127 0" result="hardAlpha"/>
<feOffset dy="4"/>
<feGaussianBlur stdDeviation="2"/>
<feComposite in2="hardAlpha" operator="out"/>
<feColorMatrix type="matrix" values="0 0 0 0 0 0 0 0 0 0 0 0 0 0 0 0 0 0 0.25 0"/>
<feBlend mode="normal" in2="BackgroundImageFix" result="effect1_dropShadow_392_3559"/>
<feBlend mode="normal" in="SourceGraphic" in2="effect1_dropShadow_392_3559" result="shape"/>
</filter>
<filter id="filter1_d_392_3559" x="107.582" y="102.869" width="26.4688" height="46" filterUnits="userSpaceOnUse" color-interpolation-filters="sRGB">
<feFlood flood-opacity="0" result="BackgroundImageFix"/>
<feColorMatrix in="SourceAlpha" type="matrix" values="0 0 0 0 0 0 0 0 0 0 0 0 0 0 0 0 0 0 127 0" result="hardAlpha"/>
<feOffset dy="4"/>
<feGaussianBlur stdDeviation="2"/>
<feComposite in2="hardAlpha" operator="out"/>
<feColorMatrix type="matrix" values="0 0 0 0 0 0 0 0 0 0 0 0 0 0 0 0 0 0 0.25 0"/>
<feBlend mode="normal" in2="BackgroundImageFix" result="effect1_dropShadow_392_3559"/>
<feBlend mode="normal" in="SourceGraphic" in2="effect1_dropShadow_392_3559" result="shape"/>
</filter>
<filter id="filter2_d_392_3559" x="36.7852" y="105.556" width="26.4688" height="41.01" filterUnits="userSpaceOnUse" color-interpolation-filters="sRGB">
<feFlood flood-opacity="0" result="BackgroundImageFix"/>
<feColorMatrix in="SourceAlpha" type="matrix" values="0 0 0 0 0 0 0 0 0 0 0 0 0 0 0 0 0 0 127 0" result="hardAlpha"/>
<feOffset dy="4"/>
<feGaussianBlur stdDeviation="2"/>
<feComposite in2="hardAlpha" operator="out"/>
<feColorMatrix type="matrix" values="0 0 0 0 0 0 0 0 0 0 0 0 0 0 0 0 0 0 0.25 0"/>
<feBlend mode="normal" in2="BackgroundImageFix" result="effect1_dropShadow_392_3559"/>
<feBlend mode="normal" in="SourceGraphic" in2="effect1_dropShadow_392_3559" result="shape"/>
</filter>
<filter id="filter3_d_392_3559" x="90.6523" y="107.859" width="26.4688" height="41.01" filterUnits="userSpaceOnUse" color-interpolation-filters="sRGB">
<feFlood flood-opacity="0" result="BackgroundImageFix"/>
<feColorMatrix in="SourceAlpha" type="matrix" values="0 0 0 0 0 0 0 0 0 0 0 0 0 0 0 0 0 0 127 0" result="hardAlpha"/>
<feOffset dy="4"/>
<feGaussianBlur stdDeviation="2"/>
<feComposite in2="hardAlpha" operator="out"/>
<feColorMatrix type="matrix" values="0 0 0 0 0 0 0 0 0 0 0 0 0 0 0 0 0 0 0.25 0"/>
<feBlend mode="normal" in2="BackgroundImageFix" result="effect1_dropShadow_392_3559"/>
<feBlend mode="normal" in="SourceGraphic" in2="effect1_dropShadow_392_3559" result="shape"/>
</filter>
<clipPath id="clip0_392_3559">
<rect width="197" height="152" fill="white"/>
</clipPath>
</defs>
</svg>
