<svg width="197" height="152" viewBox="0 0 197 152" fill="none" xmlns="http://www.w3.org/2000/svg">
<g clip-path="url(#clip0_371_8714)">
<g filter="url(#filter0_d_371_8714)">
<path d="M78.1074 116.036C78.1074 129.115 73.9731 139.717 68.873 139.717C63.773 139.717 61.7494 137.514 59.6387 116.036C59.6387 102.957 63.773 101.717 68.873 101.717C73.9731 101.717 78.1074 102.957 78.1074 116.036Z" fill="#D3D3D3"/>
<path d="M75.1074 116.036C75.1074 122.299 74.1121 127.833 72.6077 131.691C71.8518 133.63 71.0258 134.994 70.2618 135.823C69.5005 136.649 69.0281 136.717 68.873 136.717C67.7594 136.717 67.322 136.582 67.0743 136.439C66.8749 136.324 66.4331 135.992 65.8859 134.735C64.7055 132.02 63.6982 126.626 62.6389 115.891C62.6547 109.579 63.7017 106.995 64.6188 105.927C65.3652 105.059 66.4435 104.717 68.873 104.717C71.3026 104.717 72.3809 105.059 73.1273 105.927C74.0514 107.003 75.1074 109.619 75.1074 116.036Z" stroke="black" stroke-width="6"/>
</g>
<g filter="url(#filter1_d_371_8714)">
<path d="M130.051 117.187C130.051 130.266 125.916 140.869 120.816 140.869C115.716 140.869 113.693 138.666 111.582 117.187C111.582 104.109 115.716 102.869 120.816 102.869C125.916 102.869 130.051 104.109 130.051 117.187Z" fill="#D3D3D3"/>
<path d="M127.051 117.187C127.051 123.451 126.056 128.985 124.551 132.843C123.795 134.781 122.969 136.145 122.205 136.974C121.444 137.8 120.971 137.869 120.816 137.869C119.703 137.869 119.265 137.733 119.018 137.59C118.818 137.475 118.376 137.144 117.829 135.886C116.649 133.172 115.642 127.778 114.582 117.042C114.598 110.73 115.645 108.146 116.562 107.079C117.309 106.21 118.387 105.869 120.816 105.869C123.246 105.869 124.324 106.21 125.071 107.079C125.995 108.154 127.051 110.77 127.051 117.187Z" stroke="black" stroke-width="6"/>
</g>
<path d="M192.773 63.2613C193.021 60.1017 192.698 56.8157 191.606 53.833C190.538 50.8503 188.676 48.2973 186.566 46.4774C184.753 44.9355 182.842 43.8233 180.979 43.0903C181.7 41.5231 182.146 39.5768 181.997 37.4283C181.848 33.662 180.036 29.4407 176.808 26.5845C175.244 25.1689 173.332 23.9557 171.222 23.5007C169.136 22.9951 167.001 23.1973 165.238 23.7787C164.146 24.1579 163.153 24.6381 162.284 25.1942C162.135 24.3601 161.936 23.5007 161.663 22.6412C159.95 16.9792 154.91 11.9238 149.05 9.37085C146.146 8.05645 142.968 7.14648 139.765 7.09593C136.562 7.04537 133.434 7.95534 130.951 9.47196C129.436 10.4072 128.145 11.4688 127.078 12.6063C126.233 11.0644 124.967 9.49724 123.304 8.18284C120.15 5.62987 115.483 4.18908 110.939 4.64406C107.215 4.94739 103.342 6.33762 100.685 8.84004C100.412 8.30922 100.064 7.75313 99.5927 7.27287C97.9044 5.40237 95.074 4.56823 92.5415 4.61879C90.0835 4.59351 87.0297 5.4782 85.5648 7.72785C85.3165 8.10701 85.1179 8.48616 84.9441 8.86531C83.9758 7.60147 82.6351 6.38817 80.9219 5.55404C77.6446 3.80993 73.1507 3.30439 69.1037 4.69462C67.1175 5.3771 65.1312 6.43873 63.6912 8.08173C62.4249 9.44668 61.6056 11.0897 61.1339 12.7074C55.4979 9.19391 45.368 8.68838 37.5223 13.3141C34.8657 14.7548 32.3828 16.7264 30.5704 19.2036C28.7579 21.6554 27.6655 24.5623 27.3676 27.3175C27.1441 29.4155 27.3179 31.3871 27.7151 33.1565C26.4986 33.1312 25.1578 33.2828 23.7675 33.6873C20.4405 34.6983 17.1632 37.0491 15.2017 40.7395C13.5631 43.9497 13.8114 47.6654 14.879 50.5217C13.3645 51.1536 11.8499 52.0636 10.4596 53.4033C6.28843 57.3465 4.37666 63.7416 4.22769 69.9091C4.17803 73.0435 4.72425 76.3042 6.18912 79.0847C7.60432 81.8904 9.93817 84.1148 12.4458 85.3786C13.6127 85.96 14.7797 86.3644 15.9218 86.5919C15.8224 86.8447 15.7231 87.0975 15.6487 87.3755C14.6555 90.3329 14.9535 94.2761 16.7411 97.3599C18.3301 100.621 22.0047 102.896 25.1578 102.87C25.8282 102.896 26.4489 102.845 27.0448 102.769C27.2186 104.109 27.591 105.524 28.1869 106.965C29.8752 111.06 33.7484 114.624 38.0685 116.596C42.2893 118.694 47.4039 119.654 51.6495 118.416C53.9089 117.758 55.771 116.621 57.1365 115.357C57.509 118.011 59.8428 120.665 62.4498 121.6C65.0319 122.814 68.6568 122.864 70.8913 121.044C71.3382 120.691 71.7355 120.311 72.0831 119.932C72.679 120.842 73.4486 121.676 74.2928 122.409C78.0915 125.67 83.6034 127.111 88.8918 127.263C94.1305 127.465 99.8658 126.378 103.665 122.991C103.962 122.738 104.26 122.46 104.534 122.157C106.669 124.988 110.343 127.263 114.365 127.718C116.352 127.945 118.487 127.819 120.374 127.01C122.261 126.226 123.825 124.886 124.893 123.446C125.613 122.435 126.159 121.398 126.556 120.387C127.152 120.867 127.798 121.297 128.493 121.702C131.969 123.749 136.835 124.457 141.254 123.319C145.575 122.283 149.895 119.73 151.881 115.888C152.005 115.66 152.104 115.433 152.204 115.205C153.718 115.863 155.555 116.292 157.542 116.318C161.564 116.444 166.182 114.75 169.534 111.641C172.861 108.659 175.492 104.336 175.492 99.9887C175.492 99.837 175.492 99.7107 175.492 99.559C176.808 99.7612 178.373 99.6095 180.011 99.0535C182.519 98.2193 185.101 96.1213 186.442 93.3156C188.006 90.6362 187.907 86.693 186.144 84.4181C185.151 83.0279 183.909 82.0926 182.717 81.5871C183.611 81.031 184.505 80.3991 185.324 79.666C189.545 75.8492 192.4 69.5805 192.773 63.2613Z" fill="#070102"/>
<path d="M184.032 77.5174C180.581 81.0309 176.186 82.6992 173.306 82.2442C173.157 82.1937 172.984 82.3453 172.909 82.5728C172.835 82.8003 172.909 83.0278 173.083 83.0784C175.293 83.9631 178.421 83.6345 181.549 82.1431C182.567 82.8003 183.709 83.9631 184.429 85.4291C185.348 87.2491 185.298 89.4987 184.156 91.622C182.443 95.363 178.495 97.284 175.739 97.739C175.218 94.4277 173.43 92.0264 171.966 90.7626C171.891 90.6614 171.668 90.712 171.519 90.8889C171.345 91.0659 171.27 91.2428 171.345 91.3439C172.462 93.1891 173.803 96.1971 173.43 99.5842C173.132 102.946 170.898 106.409 167.943 109.063C165.038 111.742 161.314 113.284 157.888 113.537C154.437 113.815 151.408 112.93 149.67 111.717C149.595 111.641 149.397 111.717 149.223 111.894C149.049 112.071 148.999 112.273 149.074 112.349C149.446 112.829 149.918 113.31 150.514 113.739C150.39 113.942 150.291 114.144 150.142 114.321C148.329 117.152 144.754 119.123 140.93 120.059C137.132 121.019 133.134 120.615 129.981 119.174C126.828 117.758 124.544 115.509 123.575 113.638C123.551 113.537 123.327 113.512 123.104 113.562C122.88 113.638 122.731 113.79 122.781 113.891C123.004 115.382 123.923 117.101 125.413 118.694C124.891 119.679 124.246 120.665 123.402 121.575C121.44 123.774 118.411 124.937 115.109 124.431C111.881 124.078 108.827 122.409 106.792 120.261C106.692 120.16 106.568 120.033 106.469 119.907C108.256 117 108.505 113.739 107.834 111.717C107.81 111.565 107.611 111.49 107.387 111.54C107.164 111.591 106.99 111.742 107.015 111.869C107.114 114.472 105.898 118.34 102.521 120.792C99.219 123.294 94.2534 124.153 89.387 123.976C84.4959 123.85 79.6047 122.687 76.2281 120.235C74.5646 119.022 73.3232 117.48 72.8018 115.888C72.2556 114.295 72.4294 112.728 72.9011 111.49C72.9508 111.363 72.8515 111.186 72.6528 111.06C72.4542 110.934 72.2308 110.959 72.1563 111.085C71.3121 112.248 70.6666 114.169 71.0638 116.318C71.1383 116.773 71.2625 117.228 71.4363 117.683C70.9894 118.062 70.5176 118.441 69.9714 118.719C68.3079 119.629 66.1479 119.502 63.9878 118.567C61.8278 117.708 60.3877 116.191 59.8912 114.245C59.7422 113.689 59.6429 113.107 59.6181 112.551C59.7919 112.248 59.9408 111.97 60.065 111.692C60.1395 111.565 60.0153 111.363 59.7919 111.287C59.5684 111.186 59.3698 111.186 59.3201 111.287C57.8553 113.006 55.0497 115.13 51.4496 115.787C47.8495 116.494 43.6039 115.585 39.7307 113.663C35.8078 111.869 32.5305 109.013 30.7677 105.701C29.0049 102.44 28.5828 98.8259 28.9056 96.7279C28.9553 96.6521 28.7566 96.5762 28.6573 96.3488C28.558 96.1213 28.2104 96.1718 28.1608 96.3488C27.6394 97.3851 27.3414 98.6742 27.2669 100.115C26.7704 100.09 26.2986 100.039 25.8021 99.9381C23.4434 99.5084 21.2834 97.9918 20.0171 95.5399C17.0874 90.6614 19.024 84.4433 21.1592 82.2948C21.2089 82.2442 21.184 82.042 21.0599 81.7892C20.9358 81.5617 20.762 81.4101 20.6875 81.4606C19.5206 81.8651 18.304 82.9267 17.3357 84.418C16.2184 84.1147 15.0763 83.6597 13.9839 83.0025C9.83756 80.677 7.35475 75.3436 7.62786 69.7827C7.77682 64.2218 9.341 58.4839 12.5935 55.021C15.8212 51.4569 20.2902 50.4711 23.2199 50.3194C23.3689 50.3194 23.5179 50.1678 23.5427 49.915C23.5675 49.6875 23.4682 49.46 23.2944 49.46C21.8544 49.1567 19.893 49.1061 17.8074 49.5611C17.1619 47.084 17.1122 44.3541 18.304 41.9275C19.7192 39.2481 22.4254 36.9227 25.0076 35.861C26.2738 35.3302 27.5401 35.0016 28.707 34.8247C29.4767 36.8468 30.5939 38.4646 31.8105 39.4756C31.9346 39.602 32.1581 39.5515 32.3071 39.3745C32.456 39.1976 32.5057 38.9701 32.4064 38.869C30.6684 36.5941 29.4022 32.1959 30.2463 27.4944C30.9912 22.7423 34.5664 18.3188 39.3831 15.8417C44.1749 13.1876 49.662 12.0754 54.429 12.581C59.0967 13.0359 63.4416 14.8812 64.6582 17.2572C64.683 17.3836 64.8816 17.4594 65.1299 17.4341C65.3534 17.4089 65.5272 17.2572 65.4775 17.055C65.1299 16.0186 64.5092 15.0581 63.6899 14.1987C63.7147 14.1229 63.7395 14.047 63.7644 13.9712C64.683 10.9632 67.1162 8.43554 70.5176 7.42446C73.7949 6.287 77.4695 6.51449 80.3496 7.65195C83.3041 8.76414 85.2656 10.8116 86.2587 12.5304C86.3083 12.6315 86.507 12.6315 86.7304 12.5557C86.9539 12.4799 87.1028 12.3282 87.0532 12.2271C86.9787 11.8226 86.8546 11.4182 86.6808 10.9632C86.9787 10.306 87.376 9.67411 87.8973 9.14329C89.0146 7.98055 90.8767 7.55085 92.9871 7.52557C95.0479 7.50029 97.0093 7.95528 98.35 8.96635C98.8962 9.37079 99.3183 9.82577 99.6659 10.3313C97.2079 13.7437 97.1334 17.5352 97.6548 19.7849C97.6548 19.9113 97.8783 19.9871 98.1017 19.9618C98.3252 19.9365 98.5238 19.8354 98.499 19.7091C98.6976 17.5605 99.3928 14.3251 101.652 11.8227C103.862 9.29496 107.685 7.90472 111.608 7.55085C115.506 7.17169 119.404 8.20805 122.309 10.1038C123.998 11.1907 125.363 12.5051 126.331 13.8195C124.569 16.0186 123.476 18.2935 122.831 20.0882C122.756 20.2399 122.88 20.4674 123.079 20.5432C123.302 20.6443 123.526 20.5938 123.575 20.4421C125.239 17.7627 128.069 13.8701 132.563 11.5446C137.007 9.11802 142.991 9.47189 148.255 12.0501C153.568 14.4009 157.962 18.5716 159.775 23.3742C161.687 28.1263 161.116 32.9542 159.651 35.6841C159.551 35.8105 159.651 36.038 159.825 36.1896C160.023 36.3413 160.247 36.316 160.346 36.1643C161.935 34.3191 163.077 31.0584 162.953 27.2921C163.946 26.7866 165.088 26.3316 166.305 26.0788C169.309 25.3711 172.686 26.2558 175.243 28.7329C177.85 31.0584 179.488 34.4202 179.96 37.5293C180.506 40.6889 179.737 43.4441 178.768 45.1629C178.719 45.2388 178.818 45.441 178.992 45.5926C179.166 45.7443 179.364 45.7949 179.439 45.719C179.786 45.441 180.109 45.0618 180.432 44.6321C182.095 45.4915 183.809 46.6543 185.348 48.1962C188.923 51.6338 190.785 57.22 190.239 62.9074C189.867 68.5947 187.558 74.0292 184.032 77.5174Z" fill="#1652F0"/>
<path d="M197.526 79.0107C197.994 71.1458 193.636 64.1692 190.078 58.675C188.404 56.0898 186.51 53.4849 184.513 51.6597C182.659 49.965 179.78 48.1129 176.53 49.3183C174.119 50.2127 172.806 52.2747 172.142 54.3043C171.483 56.3193 171.315 58.6924 171.409 61.0749C171.6 65.8721 172.897 71.5412 174.652 76.4542C176.388 81.3141 178.437 85.0764 181.052 87.3503C182.405 88.5268 183.946 89.3367 185.672 89.6406C187.395 89.9441 189.104 89.7084 190.74 89.1018C195 87.5218 197.245 83.7436 197.526 79.0107Z" fill="#D3D3D3" stroke="black" stroke-width="6"/>
<g filter="url(#filter2_d_371_8714)">
<path d="M59.2539 117.994C59.2539 129.356 55.1195 138.566 50.0195 138.566C44.9195 138.566 42.8959 136.652 40.7852 117.994C40.7852 106.633 44.9195 105.556 50.0195 105.556C55.1195 105.556 59.2539 106.633 59.2539 117.994Z" fill="#D3D3D3"/>
<path d="M56.2539 117.994C56.2539 123.352 55.273 128.058 53.8123 131.312C52.224 134.85 50.6497 135.566 50.0195 135.566C48.8729 135.566 48.3657 135.443 48.0658 135.293C47.8523 135.186 47.4612 134.927 46.9639 133.934C45.8425 131.694 44.8449 127.141 43.7855 117.827C43.8062 112.46 44.8294 110.426 45.6227 109.624C46.3597 108.879 47.5154 108.556 50.0195 108.556C52.5237 108.556 53.6793 108.879 54.4163 109.624C55.2178 110.434 56.2539 112.502 56.2539 117.994Z" stroke="black" stroke-width="6"/>
</g>
<g filter="url(#filter3_d_371_8714)">
<path d="M113.121 120.297C113.121 131.659 108.987 140.869 103.887 140.869C98.7867 140.869 96.7631 138.955 94.6523 120.297C94.6523 108.936 98.7867 107.859 103.887 107.859C108.987 107.859 113.121 108.936 113.121 120.297Z" fill="#D3D3D3"/>
<path d="M110.121 120.297C110.121 125.655 109.14 130.361 107.68 133.615C106.091 137.153 104.517 137.869 103.887 137.869C102.74 137.869 102.233 137.746 101.933 137.596C101.72 137.489 101.328 137.23 100.831 136.237C99.7097 133.997 98.712 129.444 97.6527 120.13C97.6734 114.763 98.6966 112.729 99.4899 111.927C100.227 111.182 101.383 110.859 103.887 110.859C106.391 110.859 107.547 111.182 108.284 111.927C109.085 112.737 110.121 114.805 110.121 120.297Z" stroke="black" stroke-width="6"/>
</g>
<path d="M158.955 111.626C168.288 111.626 175.465 110.643 180.283 107.273C185.435 103.67 187.193 97.9107 187.193 90.4679C187.193 83.0948 185.481 72.0424 181.3 62.7277C177.17 53.5258 170.097 44.9797 158.955 44.9797C147.853 44.9797 140.53 53.4737 136.152 62.6662C131.72 71.9709 129.744 83.0392 129.744 90.4679C129.744 98.0421 131.822 103.769 137.209 107.319C142.238 110.635 149.601 111.626 158.955 111.626Z" fill="#D3D3D3" stroke="black" stroke-width="6"/>
<path d="M166.866 71.4747C173.414 71.4747 178.659 66.0755 178.659 59.4949C178.659 52.9144 173.414 47.5151 166.866 47.5151C160.317 47.5151 155.072 52.9144 155.072 59.4949C155.072 66.0755 160.317 71.4747 166.866 71.4747Z" fill="white" stroke="black" stroke-width="4"/>
<path d="M147.657 74.1616C154.206 74.1616 159.45 68.7624 159.45 62.1818C159.45 55.6013 154.206 50.202 147.657 50.202C141.108 50.202 135.863 55.6013 135.863 62.1818C135.863 68.7624 141.108 74.1616 147.657 74.1616Z" fill="white" stroke="black" stroke-width="4"/>
<path d="M124.577 84.8505C130.866 80.1555 133.327 72.1787 135.176 65.8276C136.037 62.8703 136.77 59.7312 136.853 57.0092C136.93 54.4734 136.462 51.0618 133.488 49.3125C131.274 48.0099 128.885 48.3075 126.93 49.0951C124.991 49.8764 123.097 51.2713 121.366 52.8775C117.88 56.1115 114.451 60.7698 111.885 65.2992C109.346 69.7795 107.833 73.8014 107.805 77.3083C107.79 79.1227 108.173 80.8466 109.052 82.3874C109.931 83.9251 111.204 85.1053 112.708 85.9901C116.595 88.2772 120.847 87.6348 124.577 84.8505Z" fill="#D3D3D3" stroke="black" stroke-width="6"/>
<path d="M151.799 87.707L152.058 90.5086C152.306 93.1813 154.002 95.5009 156.473 96.5464L157.553 97.0032C158.635 97.461 159.855 97.4717 160.946 97.0329V97.0329C164.231 95.7112 166.384 92.5249 166.384 88.9842L166.384 87.707" stroke="black" stroke-width="8" stroke-linecap="round"/>
<line y1="-4" x2="4.64722" y2="-4" transform="matrix(0.910742 0.412976 -0.414631 0.90999 130.051 73.3132)" stroke="black" stroke-width="8"/>
<path d="M144.672 64.1474C146.812 64.1474 149.381 63.8827 151.433 63.4515C152.453 63.2371 153.395 62.9714 154.105 62.6532C154.455 62.4959 154.804 62.3017 155.081 62.0552C155.348 61.817 155.676 61.412 155.676 60.8443C155.676 60.3144 155.385 59.9041 155.159 59.6527C154.91 59.3776 154.587 59.1264 154.243 58.9009C153.547 58.4463 152.613 58.0004 151.583 57.6092C149.629 56.8676 147.161 56.2607 145.006 56.2024C143.834 55.3668 142.753 54.9531 141.759 55.0556C140.617 55.1732 139.902 55.9289 139.486 56.7033C139.079 57.4621 138.884 58.3575 138.784 59.0906C138.683 59.8393 138.67 60.5037 138.67 60.8443C138.67 61.2733 138.742 61.7482 138.984 62.207C139.23 62.6734 139.614 63.0524 140.122 63.342C141.091 63.893 142.562 64.1474 144.672 64.1474Z" stroke="black" stroke-width="2"/>
<mask id="mask0_371_8714" style="mask-type:alpha" maskUnits="userSpaceOnUse" x="139" y="56" width="16" height="8">
<path d="M154.676 60.8443C154.676 62.1163 148.816 63.1474 144.672 63.1474C140.528 63.1474 139.67 62.1163 139.67 60.8443C139.67 59.5723 139.862 53.5512 144.672 57.1978C148.816 57.1978 154.676 59.5723 154.676 60.8443Z" fill="#D9D9D9"/>
</mask>
<g mask="url(#mask0_371_8714)">
<ellipse cx="147.75" cy="60.8384" rx="3.84766" ry="4.79798" fill="black"/>
</g>
<path d="M167.565 52.7374L167.303 52.7374L167.075 52.8662C166.326 53.2878 165.514 53.5921 164.671 53.8728C164.459 53.943 164.242 54.0132 164.021 54.0842C163.397 54.2851 162.753 54.4926 162.182 54.728C161.397 55.052 160.602 55.4834 160.008 56.1719C159.389 56.8899 159.062 57.8005 159.062 58.9332C159.062 59.9795 159.297 60.9005 159.987 61.5152C160.657 62.1116 161.531 62.2111 162.277 62.1981C162.93 62.1868 163.683 62.0803 164.427 61.975C164.546 61.9582 164.665 61.9415 164.782 61.9251C165.563 61.8169 166.373 61.7168 167.21 61.6936C168.764 62.9139 170.79 63.4033 172.519 63.0893C173.452 62.9197 174.346 62.5057 175.012 61.7896C175.689 61.0613 176.068 60.0877 176.068 58.9332C176.068 56.7404 175.1 55.1208 173.474 54.1008C171.913 53.122 169.821 52.7374 167.565 52.7374Z" fill="white" stroke="black" stroke-width="2"/>
<mask id="mask1_371_8714" style="mask-type:alpha" maskUnits="userSpaceOnUse" x="158" y="51" width="20" height="14">
<path d="M167.565 52.7374L167.303 52.7374L167.075 52.8662C166.326 53.2878 165.514 53.5921 164.671 53.8728C164.459 53.943 164.242 54.0132 164.021 54.0842C163.397 54.2851 162.753 54.4926 162.182 54.728C161.397 55.052 160.602 55.4834 160.008 56.1719C159.389 56.8899 159.062 57.8005 159.062 58.9332C159.062 59.9795 159.297 60.9005 159.987 61.5152C160.657 62.1116 161.531 62.2111 162.277 62.1981C162.93 62.1868 163.683 62.0803 164.427 61.975C164.546 61.9582 164.665 61.9415 164.782 61.9251C165.563 61.8169 166.373 61.7168 167.21 61.6936C168.764 62.9139 170.79 63.4033 172.519 63.0893C173.452 62.9197 174.346 62.5057 175.012 61.7896C175.689 61.0613 176.068 60.0877 176.068 58.9332C176.068 56.7404 175.1 55.1208 173.474 54.1008C171.913 53.122 169.821 52.7374 167.565 52.7374Z" fill="white" stroke="black" stroke-width="2"/>
</mask>
<g mask="url(#mask1_371_8714)">
<ellipse cx="170.451" cy="57.5758" rx="4.61719" ry="4.60606" fill="black"/>
</g>
<path d="M85.0215 66.4832V71.405C85.0215 73.5404 84.7936 75.3829 84.3379 76.9324C83.8822 78.4688 83.2246 79.7319 82.3652 80.7214C81.5189 81.698 80.5098 82.4207 79.3379 82.8894C78.166 83.3582 76.8639 83.5925 75.4316 83.5925C74.2858 83.5925 73.2181 83.4493 72.2285 83.1628C71.2389 82.8634 70.347 82.4011 69.5527 81.7761C68.7715 81.1511 68.0944 80.3634 67.5215 79.4128C66.9616 78.4493 66.5319 77.3035 66.2324 75.9753C65.9329 74.6472 65.7832 73.1238 65.7832 71.405V66.4832C65.7832 64.3477 66.0111 62.5183 66.4668 60.9949C66.9355 59.4584 67.5931 58.2019 68.4395 57.2253C69.2988 56.2488 70.3145 55.5326 71.4863 55.0769C72.6582 54.6082 73.9603 54.3738 75.3926 54.3738C76.5384 54.3738 77.5996 54.5235 78.5762 54.823C79.5658 55.1095 80.4577 55.5587 81.252 56.1707C82.0462 56.7826 82.7233 57.5704 83.2832 58.5339C83.8431 59.4845 84.2728 60.6238 84.5723 61.9519C84.8717 63.267 85.0215 64.7774 85.0215 66.4832ZM79.377 72.1472V65.7214C79.377 64.6928 79.3184 63.7944 79.2012 63.0261C79.097 62.2579 78.9342 61.6069 78.7129 61.073C78.4915 60.5261 78.2181 60.0834 77.8926 59.7449C77.5671 59.4063 77.196 59.1589 76.7793 59.0027C76.3626 58.8464 75.9004 58.7683 75.3926 58.7683C74.7546 58.7683 74.1882 58.892 73.6934 59.1394C73.2116 59.3868 72.8014 59.7839 72.4629 60.3308C72.1243 60.8647 71.8639 61.5808 71.6816 62.4792C71.5124 63.3647 71.4277 64.4454 71.4277 65.7214V72.1472C71.4277 73.1759 71.4798 74.0808 71.584 74.8621C71.7012 75.6433 71.8704 76.3139 72.0918 76.8738C72.3262 77.4207 72.5996 77.8699 72.9121 78.2214C73.2376 78.56 73.6087 78.8074 74.0254 78.9636C74.4551 79.1199 74.9238 79.198 75.4316 79.198C76.0566 79.198 76.61 79.0743 77.0918 78.8269C77.5866 78.5665 78.0033 78.1628 78.3418 77.616C78.6934 77.0561 78.9538 76.3269 79.123 75.4285C79.2923 74.53 79.377 73.4363 79.377 72.1472Z" fill="white"/>
</g>
<defs>
<filter id="filter0_d_371_8714" x="55.6387" y="101.717" width="26.4688" height="46" filterUnits="userSpaceOnUse" color-interpolation-filters="sRGB">
<feFlood flood-opacity="0" result="BackgroundImageFix"/>
<feColorMatrix in="SourceAlpha" type="matrix" values="0 0 0 0 0 0 0 0 0 0 0 0 0 0 0 0 0 0 127 0" result="hardAlpha"/>
<feOffset dy="4"/>
<feGaussianBlur stdDeviation="2"/>
<feComposite in2="hardAlpha" operator="out"/>
<feColorMatrix type="matrix" values="0 0 0 0 0 0 0 0 0 0 0 0 0 0 0 0 0 0 0.25 0"/>
<feBlend mode="normal" in2="BackgroundImageFix" result="effect1_dropShadow_371_8714"/>
<feBlend mode="normal" in="SourceGraphic" in2="effect1_dropShadow_371_8714" result="shape"/>
</filter>
<filter id="filter1_d_371_8714" x="107.582" y="102.869" width="26.4688" height="46" filterUnits="userSpaceOnUse" color-interpolation-filters="sRGB">
<feFlood flood-opacity="0" result="BackgroundImageFix"/>
<feColorMatrix in="SourceAlpha" type="matrix" values="0 0 0 0 0 0 0 0 0 0 0 0 0 0 0 0 0 0 127 0" result="hardAlpha"/>
<feOffset dy="4"/>
<feGaussianBlur stdDeviation="2"/>
<feComposite in2="hardAlpha" operator="out"/>
<feColorMatrix type="matrix" values="0 0 0 0 0 0 0 0 0 0 0 0 0 0 0 0 0 0 0.25 0"/>
<feBlend mode="normal" in2="BackgroundImageFix" result="effect1_dropShadow_371_8714"/>
<feBlend mode="normal" in="SourceGraphic" in2="effect1_dropShadow_371_8714" result="shape"/>
</filter>
<filter id="filter2_d_371_8714" x="36.7852" y="105.556" width="26.4688" height="41.01" filterUnits="userSpaceOnUse" color-interpolation-filters="sRGB">
<feFlood flood-opacity="0" result="BackgroundImageFix"/>
<feColorMatrix in="SourceAlpha" type="matrix" values="0 0 0 0 0 0 0 0 0 0 0 0 0 0 0 0 0 0 127 0" result="hardAlpha"/>
<feOffset dy="4"/>
<feGaussianBlur stdDeviation="2"/>
<feComposite in2="hardAlpha" operator="out"/>
<feColorMatrix type="matrix" values="0 0 0 0 0 0 0 0 0 0 0 0 0 0 0 0 0 0 0.25 0"/>
<feBlend mode="normal" in2="BackgroundImageFix" result="effect1_dropShadow_371_8714"/>
<feBlend mode="normal" in="SourceGraphic" in2="effect1_dropShadow_371_8714" result="shape"/>
</filter>
<filter id="filter3_d_371_8714" x="90.6523" y="107.859" width="26.4688" height="41.01" filterUnits="userSpaceOnUse" color-interpolation-filters="sRGB">
<feFlood flood-opacity="0" result="BackgroundImageFix"/>
<feColorMatrix in="SourceAlpha" type="matrix" values="0 0 0 0 0 0 0 0 0 0 0 0 0 0 0 0 0 0 127 0" result="hardAlpha"/>
<feOffset dy="4"/>
<feGaussianBlur stdDeviation="2"/>
<feComposite in2="hardAlpha" operator="out"/>
<feColorMatrix type="matrix" values="0 0 0 0 0 0 0 0 0 0 0 0 0 0 0 0 0 0 0.25 0"/>
<feBlend mode="normal" in2="BackgroundImageFix" result="effect1_dropShadow_371_8714"/>
<feBlend mode="normal" in="SourceGraphic" in2="effect1_dropShadow_371_8714" result="shape"/>
</filter>
<clipPath id="clip0_371_8714">
<rect width="197" height="152" fill="white"/>
</clipPath>
</defs>
</svg>
